<svg width="95" height="11" viewBox="0 0 95 11" fill="none" xmlns="http://www.w3.org/2000/svg">
<path fill-rule="evenodd" clip-rule="evenodd" d="M6.60255 7.0565C6.07944 7.16037 5.53748 7.25022 5.19325 7.56623C5.69926 7.44104 6.25572 7.38405 6.60255 7.0565ZM39.6379 1.78771C41.7646 1.85687 43.8772 1.72687 45.9975 1.70563C49.0377 1.67479 52.0779 1.63337 55.1257 1.78756C56.998 1.88257 58.8723 1.83349 60.7527 1.96556C65.1379 2.27383 69.5291 2.50146 73.8993 2.96074C77.407 3.32949 80.9196 3.66801 84.4151 4.09955C87.5139 4.48239 90.554 5.0449 93.6058 5.57265C94.0338 5.64654 94.4552 5.75186 94.7512 5.98907C94.5909 6.24744 94.22 5.91622 94.0709 6.14107C94.2945 6.32557 95.074 6.2034 94.8451 6.54849C94.6579 6.83064 94.1586 7.05897 93.4993 7.02018C92.5832 6.96624 91.7863 6.65411 90.8999 6.5426C86.968 6.04788 83.0565 5.47537 79.0872 5.1358C76.6459 4.92695 74.2061 4.64881 71.7576 4.59325C70.4001 4.56218 69.0923 4.25334 67.7375 4.3213C67.4046 4.33791 67.0676 4.21522 66.7491 4.43555C66.6309 4.51722 66.1111 4.66325 66.0478 4.24739C66.0343 4.15964 65.7966 4.19028 65.6493 4.18463C64.0572 4.12349 62.4448 3.9334 60.879 4.02387C59.3548 4.11194 57.8484 3.97763 56.3347 4.00998C55.2653 4.03262 54.2047 3.70008 53.0954 3.77417C52.6375 3.80451 52.1661 3.76166 51.7245 3.87787C51.5515 3.86841 51.3787 3.85923 51.2057 3.84977C50.0295 3.73312 48.8574 3.69945 47.6966 3.8708C46.4611 3.74635 45.2365 3.76156 44.0234 3.93162C42.7103 3.8883 41.405 3.81296 40.1267 4.12156C39.5957 4.24967 38.966 4.19551 38.3861 4.24506C36.4111 4.41364 34.4395 4.59675 32.4641 4.76148C32.0986 4.79197 31.7133 4.90889 31.3491 4.72308C30.3136 4.65638 29.3281 4.79458 28.3597 5.00223C27.3918 5.23796 26.3498 5.21535 25.3458 5.31099C24.052 5.43438 22.7974 5.55053 21.5887 5.92946C20.5944 6.24119 19.4189 6.2172 18.3401 6.42148C15.9826 6.8685 13.5441 7.23477 11.3913 7.9701C9.0499 8.76986 6.43793 9.12161 4.19528 10.0459C3.62333 10.2818 3.15447 10.6168 2.48321 10.7629C1.79903 10.9116 0.690114 10.6956 0.258748 10.1728C-0.0940497 9.74506 -0.0413106 9.29063 0.537401 8.92484C1.52864 8.2987 2.64596 7.78587 3.80742 7.32269C8.80485 5.33003 14.2378 4.03242 19.8543 3.04605C25.3411 2.08228 30.9306 1.45346 36.5975 1.09672C39.4816 0.915252 42.3805 0.890627 45.2777 0.826136C48.2586 0.75978 51.2373 0.721276 54.2209 0.821326C56.8777 0.91047 59.5314 1.0697 62.1844 1.22079C65.2918 1.39741 68.3939 1.60248 71.4797 1.89654C78.8816 2.60187 86.2662 3.39804 93.4514 4.93304C93.9358 5.03655 94.553 4.95227 94.9026 5.37C94.3693 5.55997 93.854 5.45599 93.3485 5.35246C89.6489 4.59337 85.8915 4.03973 82.1055 3.53859C76.5255 2.79976 70.8918 2.42661 65.2754 1.94407C62.559 1.71068 59.8132 1.68445 57.0839 1.52895C53.5032 1.32447 49.9229 1.32312 46.3463 1.33399C44.2072 1.34051 42.0587 1.39459 39.9435 1.62863C39.7898 1.64573 39.6574 1.67539 39.6448 1.80101C39.2617 1.59082 38.8425 1.71424 38.4465 1.73356C35.3623 1.88451 32.2996 2.13793 29.2441 2.43244C27.3263 2.61744 25.4364 2.89322 23.5279 3.10692C21.5192 3.33162 19.5527 3.73362 17.6097 4.14215C17.0594 4.25777 16.2821 4.16667 15.9663 4.6506C15.0542 4.47657 14.4207 4.86786 13.7197 5.12039C14.4922 5.01143 15.2697 4.91152 15.9566 4.63329C16.1585 4.61664 16.3692 4.61896 16.5612 4.58073C22.2332 3.4425 28.0325 2.68337 33.9306 2.22064C35.8321 2.07131 37.7353 1.93183 39.6379 1.78771Z" fill="#A3D80D"/>
</svg>
